<?xml version="1.0" encoding="utf-8"?>
<!-- Generator: Adobe Illustrator 27.2.0, SVG Export Plug-In . SVG Version: 6.00 Build 0)  -->
<svg version="1.1" id="bootstrap" xmlns="http://www.w3.org/2000/svg" xmlns:xlink="http://www.w3.org/1999/xlink" x="0px" y="0px"
	 viewBox="0 0 190.5 220" style="enable-background:new 0 0 190.5 220;" xml:space="preserve">
<style type="text/css">
	.st0{fill:#6E2BF3;}
	.st1{fill-rule:evenodd;clip-rule:evenodd;fill:#FFFFFF;}
</style>
<polygon class="st0" points="0,55 0,165 95.3,220 190.5,165 190.5,55 95.3,0 "/>
<path class="st1" d="M67.4,72.1c-5.4,0-9.5,4.7-9.3,9.9c0.2,5-0.1,11.4-1.7,16.6c-1.6,5.2-4.4,8.6-8.8,9v4.8c4.5,0.4,7.2,3.7,8.8,9
	c1.6,5.2,1.8,11.6,1.7,16.6c-0.2,5.2,3.8,9.9,9.3,9.9h55.6c5.4,0,9.4-4.7,9.3-9.9c-0.2-5,0.1-11.4,1.7-16.6c1.6-5.2,4.4-8.6,8.8-9
	v-4.8c-4.5-0.4-7.2-3.7-8.8-9c-1.6-5.2-1.8-11.6-1.7-16.6c0.2-5.2-3.8-9.9-9.3-9.9H67.4L67.4,72.1z M112.2,118.8
	c0,7.1-5.3,11.4-14.1,11.4h-15c-0.4,0-0.8-0.2-1.1-0.5c-0.3-0.3-0.5-0.7-0.5-1.1V91.5c0-0.4,0.2-0.8,0.5-1.1
	c0.3-0.3,0.7-0.5,1.1-0.5H98c7.3,0,12.1,4,12.1,10.1c0,4.3-3.2,8.1-7.4,8.8v0.2C108.4,109.5,112.2,113.4,112.2,118.8z M96.5,95H88
	V107h7.2c5.5,0,8.6-2.2,8.6-6.2C103.8,97,101.1,95,96.5,95z M88,111.8v13.3h8.8c5.8,0,8.8-2.3,8.8-6.7c0-4.4-3.2-6.6-9.2-6.6H88
	L88,111.8z"/>
</svg>
