<?xml version="1.0" encoding="utf-8"?>
<!-- Generator: Adobe Illustrator 27.2.0, SVG Export Plug-In . SVG Version: 6.00 Build 0)  -->
<svg version="1.1" id="javascript" xmlns="http://www.w3.org/2000/svg" xmlns:xlink="http://www.w3.org/1999/xlink" x="0px" y="0px"
	 viewBox="0 0 190.5 220" style="enable-background:new 0 0 190.5 220;" xml:space="preserve">
<style type="text/css">
	.st0{fill:#F0DB4F;}
	.st1{fill:#323330;}
</style>
<polygon class="st0" points="0,55 0,165 95.3,220 190.5,165 190.5,55 95.3,0 "/>
<path class="st1" d="M167.2,139.5c-1-6.3-5.1-11.5-17.2-16.4c-4.2-1.9-8.9-3.3-10.3-6.5c-0.5-1.8-0.6-2.9-0.2-4
	c0.9-3.6,5.2-4.8,8.7-3.7c2.2,0.7,4.3,2.5,5.6,5.2c5.9-3.8,5.9-3.8,10-6.5c-1.5-2.3-2.3-3.4-3.3-4.4c-3.6-4-8.4-6-16.2-5.9
	c-1.3,0.2-2.7,0.3-4,0.5c-3.9,1-7.6,3-9.7,5.7c-6.5,7.4-4.6,20.3,3.3,25.6c7.8,5.8,19.2,7.2,20.7,12.6c1.4,6.7-4.9,8.9-11.2,8.1
	c-4.6-1-7.2-3.3-10-7.6c-5.1,3-5.1,3-10.4,6c1.2,2.7,2.6,4,4.7,6.4c9.9,10.1,34.8,9.6,39.3-5.7C167,148.4,168.2,144.9,167.2,139.5z
	 M115.8,98.1H103c0,11.1,0,22.1,0,33.2c0,7.1,0.4,13.5-0.8,15.5c-1.9,3.9-6.8,3.4-9,2.7c-2.3-1.1-3.4-2.7-4.7-4.9
	c-0.4-0.6-0.6-1.1-0.7-1.2c-3.5,2.1-7,4.3-10.4,6.4c1.7,3.6,4.3,6.7,7.6,8.7c4.9,2.9,11.5,3.8,18.3,2.3c4.5-1.3,8.3-4,10.4-8.1
	c2.9-5.4,2.3-11.9,2.3-19.1C115.9,121.6,115.8,109.9,115.8,98.1L115.8,98.1z"/>
</svg>
