<?xml version="1.0" encoding="utf-8"?>
<!-- Generator: Adobe Illustrator 27.2.0, SVG Export Plug-In . SVG Version: 6.00 Build 0)  -->
<svg version="1.1" id="react" xmlns="http://www.w3.org/2000/svg" xmlns:xlink="http://www.w3.org/1999/xlink" x="0px" y="0px"
	 viewBox="0 0 190.5 220" style="enable-background:new 0 0 190.5 220;" xml:space="preserve">
<style type="text/css">
	.st0{fill:#303030;}
	.st1{fill:#8CC84B;}
</style>
<polygon class="st0" points="0,55 0,165 95.3,220 190.5,165 190.5,55 95.3,0 "/>
<g>
	<path class="st1" d="M90.1,47.9c3.2-1.8,7.2-1.8,10.4,0c15.8,8.9,31.7,17.9,47.5,26.8c3,1.7,5,5,4.9,8.4v53.8c0,3.6-2.2,7-5.3,8.6
		c-15.8,8.9-31.6,17.8-47.3,26.7c-3.2,1.8-7.4,1.7-10.5-0.3c-4.7-2.7-9.5-5.5-14.2-8.2c-1-0.6-2.1-1-2.7-2c0.6-0.8,1.7-0.9,2.6-1.3
		c2-0.6,3.8-1.6,5.6-2.6c0.5-0.3,1-0.2,1.5,0.1c4,2.3,8.1,4.7,12.1,7c0.9,0.5,1.7-0.2,2.5-0.6c15.5-8.7,31-17.5,46.5-26.2
		c0.6-0.3,0.9-0.9,0.8-1.5c0-17.8,0-35.5,0-53.3c0.1-0.7-0.3-1.4-1-1.7c-15.7-8.9-31.4-17.7-47.2-26.6c-0.6-0.4-1.3-0.4-1.9,0
		C78.6,64,62.9,72.9,47.2,81.7c-0.6,0.3-1.1,0.9-1,1.7c0,17.8,0,35.5,0,53.3c-0.1,0.6,0.3,1.2,0.9,1.5c4.2,2.4,8.4,4.7,12.6,7.1
		c2.4,1.3,5.3,2,7.9,1.1c2.3-0.8,3.9-3.2,3.9-5.6c0-17.6,0-35.3,0-52.9c-0.1-0.8,0.7-1.4,1.4-1.4c2,0,4,0,6.1,0
		c0.8,0,1.4,0.8,1.3,1.6c0,17.8,0,35.5,0,53.3c0,4.7-1.9,9.9-6.3,12.2c-5.4,2.8-12.1,2.2-17.4-0.5c-4.6-2.3-9-5-13.5-7.5
		c-3.2-1.6-5.3-5-5.3-8.6V83.1c0-3.5,2-6.9,5.1-8.5C58.5,65.7,74.3,56.8,90.1,47.9z"/>
	<path class="st1" d="M103.8,85.1c6.9-0.4,14.2-0.3,20.4,3.1c4.8,2.6,7.4,8.1,7.5,13.4c-0.1,0.7-0.9,1.1-1.6,1.1c-2,0-4,0-6,0
		c-0.8,0-1.3-0.8-1.4-1.5c-0.6-2.5-2-5.1-4.4-6.3c-3.7-1.8-7.9-1.7-12-1.7c-2.9,0.2-6.1,0.4-8.6,2.1c-1.9,1.3-2.5,3.9-1.8,6.1
		c0.6,1.5,2.4,2,3.8,2.5c8.3,2.2,17.1,2,25.2,4.8c3.4,1.2,6.7,3.4,7.8,7c1.5,4.7,0.8,10.4-2.5,14.2c-2.7,3.1-6.7,4.8-10.7,5.7
		c-5.3,1.2-10.7,1.2-16.1,0.7c-5-0.6-10.3-1.9-14.1-5.3c-3.3-2.9-4.9-7.4-4.8-11.7c0-0.7,0.8-1.2,1.5-1.2c2,0,4,0,6,0
		c0.8-0.1,1.4,0.6,1.4,1.4c0.4,2.4,1.3,5,3.4,6.4c4.1,2.6,9.2,2.5,13.9,2.5c3.9-0.2,8.2-0.2,11.4-2.8c1.7-1.5,2.2-3.9,1.7-6
		c-0.5-1.8-2.3-2.6-3.9-3.1c-8.2-2.6-17.1-1.7-25.2-4.6c-3.3-1.2-6.5-3.4-7.7-6.7c-1.8-4.8-1-10.7,2.8-14.4
		C93.6,87,98.8,85.6,103.8,85.1L103.8,85.1z"/>
</g>
</svg>
