<?xml version="1.0" encoding="utf-8"?>
<!-- Generator: Adobe Illustrator 27.2.0, SVG Export Plug-In . SVG Version: 6.00 Build 0)  -->
<svg version="1.1" id="react" xmlns="http://www.w3.org/2000/svg" xmlns:xlink="http://www.w3.org/1999/xlink" x="0px" y="0px"
	 viewBox="0 0 190.5 220" style="enable-background:new 0 0 190.5 220;" xml:space="preserve">
<style type="text/css">
	.st0{fill:#61DAFB;}
	.st1{fill:#FFFFFF;}
</style>
<polygon class="st0" points="0,55 0,165 95.3,220 190.5,165 190.5,55 95.3,0 "/>
<g>
	<path class="st1" d="M147.9,110c0-7-8.7-13.6-22.1-17.7c3.1-13.6,1.7-24.5-4.3-28c-1.4-0.8-3-1.2-4.8-1.2v4.8c1,0,1.8,0.2,2.4,0.6
		c2.9,1.7,4.2,8,3.2,16.2c-0.2,2-0.6,4.1-1.1,6.3c-4.2-1-8.8-1.8-13.6-2.3c-2.9-4-5.9-7.6-8.9-10.7c7-6.5,13.6-10.1,18-10.1v-4.8
		c-5.9,0-13.6,4.2-21.4,11.5c-7.8-7.3-15.5-11.4-21.4-11.4V68c4.4,0,11,3.5,18,10c-3,3.2-6,6.7-8.9,10.7c-4.8,0.5-9.4,1.3-13.6,2.4
		c-0.5-2.1-0.9-4.2-1.1-6.2c-1-8.2,0.2-14.6,3.1-16.3c0.6-0.4,1.5-0.6,2.5-0.6v-4.8c-1.8,0-3.4,0.4-4.8,1.2
		c-6,3.5-7.4,14.3-4.3,27.9c-13.3,4.1-22,10.7-22,17.7c0,7,8.7,13.6,22.1,17.7c-3.1,13.6-1.7,24.5,4.3,28c1.4,0.8,3,1.2,4.8,1.2
		c5.9,0,13.6-4.2,21.4-11.5c7.8,7.3,15.5,11.4,21.4,11.4c1.8,0,3.4-0.4,4.8-1.2c6-3.5,7.4-14.3,4.3-27.9
		C139.2,123.6,147.9,117,147.9,110L147.9,110z M120,95.7c-0.8,2.8-1.8,5.6-2.9,8.5c-0.9-1.7-1.8-3.4-2.8-5.1c-1-1.7-2-3.4-3.1-5
		C114.2,94.5,117.1,95,120,95.7L120,95.7z M110.1,118.5c-1.7,2.9-3.4,5.6-5.2,8.2c-3.2,0.3-6.4,0.4-9.7,0.4c-3.2,0-6.5-0.2-9.7-0.4
		c-1.8-2.6-3.5-5.3-5.2-8.2c-1.6-2.8-3.1-5.7-4.5-8.5c1.3-2.9,2.8-5.7,4.4-8.6c1.7-2.9,3.4-5.6,5.2-8.2c3.2-0.3,6.4-0.4,9.7-0.4
		c3.2,0,6.5,0.2,9.7,0.4c1.8,2.6,3.5,5.3,5.2,8.2c1.6,2.8,3.1,5.7,4.5,8.5C113.2,112.9,111.7,115.7,110.1,118.5L110.1,118.5z
		 M117.1,115.8c1.2,2.9,2.1,5.7,3,8.5c-2.8,0.7-5.8,1.3-8.8,1.7c1.1-1.7,2.1-3.3,3.1-5.1C115.3,119.2,116.2,117.5,117.1,115.8
		L117.1,115.8z M95.3,138.7c-2-2.1-4-4.4-6-6.9c1.9,0.1,3.9,0.2,5.9,0.2c2,0,4,0,6-0.2C99.3,134.3,97.3,136.6,95.3,138.7z M79.3,126
		c-3-0.5-6-1-8.8-1.7c0.8-2.8,1.8-5.6,2.9-8.5c0.9,1.7,1.8,3.4,2.8,5.1C77.3,122.7,78.3,124.4,79.3,126z M95.2,81.4
		c2,2.1,4,4.4,6,6.9c-1.9-0.1-3.9-0.2-5.9-0.2c-2,0-4,0-6,0.2C91.2,85.7,93.2,83.4,95.2,81.4z M79.3,94c-1.1,1.7-2.1,3.3-3.1,5.1
		c-1,1.7-1.9,3.4-2.8,5.1c-1.2-2.9-2.1-5.7-3-8.5C73.3,95,76.3,94.5,79.3,94L79.3,94z M59.9,120.9c-7.6-3.2-12.5-7.5-12.5-10.9
		s4.9-7.6,12.5-10.9c1.8-0.8,3.9-1.5,5.9-2.2c1.2,4.2,2.8,8.6,4.8,13.1c-2,4.5-3.6,8.8-4.8,13C63.8,122.4,61.8,121.7,59.9,120.9
		L59.9,120.9z M71.4,151.5c-2.9-1.7-4.2-8-3.2-16.2c0.2-2,0.6-4.1,1.1-6.3c4.2,1,8.8,1.8,13.6,2.3c2.9,4,5.9,7.6,8.9,10.7
		c-7,6.5-13.6,10.1-18,10.1C72.9,152.1,72.1,151.9,71.4,151.5L71.4,151.5z M122.3,135.2c1,8.2-0.2,14.6-3.1,16.3
		c-0.6,0.4-1.5,0.6-2.5,0.6c-4.4,0-11-3.5-18-10c3-3.2,6-6.7,8.9-10.7c4.8-0.5,9.4-1.3,13.6-2.4
		C121.7,131.1,122.1,133.2,122.3,135.2z M130.6,120.9c-1.8,0.8-3.9,1.5-5.9,2.2c-1.2-4.2-2.8-8.6-4.8-13.1c2-4.5,3.6-8.8,4.8-13
		c2.1,0.7,4.1,1.4,6,2.2c7.6,3.2,12.5,7.5,12.5,10.9C143.1,113.4,138.2,117.6,130.6,120.9L130.6,120.9z"/>
	<circle class="st1" cx="95.2" cy="110" r="9.8"/>
</g>
</svg>
