<?xml version="1.0" encoding="utf-8"?>
<!-- Generator: Adobe Illustrator 27.2.0, SVG Export Plug-In . SVG Version: 6.00 Build 0)  -->
<svg version="1.1" id="tailwind" xmlns="http://www.w3.org/2000/svg" xmlns:xlink="http://www.w3.org/1999/xlink" x="0px" y="0px"
	 viewBox="0 0 190.5 220" style="enable-background:new 0 0 190.5 220;" xml:space="preserve">
<style type="text/css">
	.st0{fill:#0ED7B5;}
	.st1{fill:url(#SVGID_1_);}
</style>
<polygon class="st0" points="0,55 0,165 95.2,220 190.5,165 190.5,55 95.2,0 "/>
<linearGradient id="SVGID_1_" gradientUnits="userSpaceOnUse" x1="-2718.6262" y1="229.7354" x2="-2718.5625" y2="229.7133" gradientTransform="matrix(2500 0 0 -1500 6796579 344696.125)">
	<stop  offset="0" style="stop-color:#FFFFFF"/>
	<stop  offset="1" style="stop-color:#FFFFFF"/>
</linearGradient>
<path class="st1" d="M95.2,63.5c-20.7,0-33.6,10.3-38.8,31c7.7-10.3,16.8-14.2,27.1-11.6c5.9,1.5,10.1,5.7,14.8,10.5
	c7.6,7.7,16.4,16.6,35.6,16.6c20.7,0,33.6-10.3,38.8-31C165,89.4,156,93.2,145.6,90.6c-5.9-1.5-10.1-5.7-14.8-10.5
	C123.2,72.5,114.4,63.5,95.2,63.5z M56.5,110c-20.7,0-33.6,10.3-38.8,31c7.7-10.3,16.8-14.2,27.1-11.6c5.9,1.5,10.1,5.7,14.8,10.5
	c7.6,7.7,16.4,16.6,35.6,16.6c20.7,0,33.6-10.3,38.8-31c-7.7,10.3-16.8,14.2-27.1,11.6c-5.9-1.5-10.1-5.7-14.8-10.5
	C84.5,119,75.7,110,56.5,110z"/>
</svg>
